<svg width="125" height="94" viewBox="0 0 125 94" fill="none" xmlns="http://www.w3.org/2000/svg">
<path d="M60.5049 3.09467C61.4078 2.39228 62.6722 2.39228 63.5751 3.09467L99.9488 31.3918C101.827 32.8533 100.794 35.865 98.4137 35.865L25.6663 35.865C23.286 35.865 22.2525 32.8533 24.1312 31.3918L60.5049 3.09467Z" fill="#FFCB47" stroke="black" stroke-width="3"/>
<path d="M26.88 17.28C26.88 14.7947 28.8947 12.78 31.38 12.78H91.76C94.2453 12.78 96.26 14.7947 96.26 17.28V51.34C96.26 53.8253 94.2453 55.84 91.76 55.84H31.38C28.8947 55.84 26.88 53.8253 26.88 51.34V17.28Z" fill="white" stroke="black" stroke-width="3"/>
<rect x="38.54" y="25.3799" width="47" height="1.88" rx="0.94" fill="black"/>
<rect x="38.54" y="31.02" width="47" height="1.88" rx="0.94" fill="black"/>
<rect x="38.54" y="37.6001" width="32.9" height="2.82" rx="1.41" fill="black"/>
<rect x="74.26" y="37.6001" width="5.64" height="1.88" rx="0.94" fill="black"/>
<path d="M52.9646 55.3201C54.3338 56.3186 54.3338 58.3614 52.9646 59.3599L23.5681 80.7983C21.916 82.0032 19.595 80.8232 19.595 78.7784L19.595 35.9016C19.595 33.8568 21.916 32.6768 23.5681 33.8817L52.9646 55.3201Z" fill="#FFCB47" stroke="black" stroke-width="3"/>
<path d="M71.1154 59.3598C69.7462 58.3613 69.7462 56.3186 71.1154 55.32L100.512 33.8816C102.164 32.6768 104.485 33.8568 104.485 35.9015L104.485 78.7784C104.485 80.8231 102.164 82.0031 100.512 80.7983L71.1154 59.3598Z" fill="#FFCB47" stroke="black" stroke-width="3"/>
<path d="M60.7689 54.1925C61.553 53.7295 62.527 53.7295 63.3111 54.1925L102.398 77.2722C104.589 78.5661 103.672 81.9249 101.127 81.9249H22.9531C20.4082 81.9249 19.4906 78.5661 21.6819 77.2722L60.7689 54.1925Z" fill="#FFCB47" stroke="black" stroke-width="3"/>
<rect width="6.45563" height="2.40284" rx="1.20142" transform="matrix(0.31177 -0.950158 0.976888 0.213753 97.995 7.80469)" fill="black"/>
<rect width="7.0992" height="2.2185" rx="1.10925" transform="matrix(0.774554 -0.632508 0.774554 0.632508 102.649 10.1602)" fill="black"/>
</svg>
